<svg width="15" height="15" viewBox="0 0 15 15" fill="none" xmlns="http://www.w3.org/2000/svg">
<path d="M10.1667 7.55884C10.1667 9.0316 8.97276 10.2255 7.5 10.2255C6.02724 10.2255 4.83333 9.0316 4.83333 7.55884C4.83333 6.08608 6.02724 4.89217 7.5 4.89217C8.97276 4.89217 10.1667 6.08608 10.1667 7.55884ZM10.1667 7.55884L10.1667 8.55882C10.1667 9.00084 10.3423 9.42477 10.6548 9.73733C10.9674 10.0499 11.3913 10.2255 11.8333 10.2255C12.2754 10.2255 12.6993 10.0499 13.0118 9.73733C13.3244 9.42477 13.5 9.00084 13.5 8.55882V7.55882C13.5017 6.26955 13.088 5.01404 12.3203 3.97828C11.5525 2.94251 10.4716 2.18158 9.23759 1.80822C8.00357 1.43485 6.68211 1.4689 5.46896 1.90532C4.2558 2.34175 3.2155 3.15734 2.50214 4.23127C1.78878 5.3052 1.44031 6.58034 1.50837 7.86781C1.57642 9.15528 2.05737 10.3866 2.87997 11.3793C3.70257 12.3721 4.82306 13.0734 6.07546 13.3795C7.32786 13.6856 8.64555 13.5802 9.83333 13.0788" stroke="#5C5F66" stroke-width="2" stroke-linecap="round" stroke-linejoin="round"/>
</svg>
