<svg width="15" height="16" viewBox="0 0 15 16" fill="none" xmlns="http://www.w3.org/2000/svg">
<path d="M6.2625 14.9838C2.7 14.3463 0 11.2713 0 7.55884C0 3.43384 3.375 0.0588379 7.5 0.0588379C11.625 0.0588379 15 3.43384 15 7.55884C15 11.2713 12.3 14.3463 8.7375 14.9838L8.325 14.6463H6.675L6.2625 14.9838Z" fill="url(#paint0_linear_104_1678)"/>
<path d="M10.425 9.65884L10.7625 7.55884H8.775V6.09634C8.775 5.49634 9 5.04634 9.9 5.04634H10.875V3.13384C10.35 3.05884 9.75 2.98384 9.225 2.98384C7.5 2.98384 6.3 4.03384 6.3 5.90884V7.55884H4.425V9.65884H6.3V14.9463C6.7125 15.0213 7.125 15.0588 7.5375 15.0588C7.95 15.0588 8.3625 15.0213 8.775 14.9463V9.65884H10.425Z" fill="white"/>
<defs>
<linearGradient id="paint0_linear_104_1678" x1="7.50037" y1="14.6099" x2="7.50037" y2="0.0560611" gradientUnits="userSpaceOnUse">
<stop stop-color="#0062E0"/>
<stop offset="1" stop-color="#19AFFF"/>
</linearGradient>
</defs>
</svg>
