<svg width="16" height="16" viewBox="0 0 16 16" fill="none" xmlns="http://www.w3.org/2000/svg">
<path d="M8.15302 6.19518V9.09973H12.2718C12.0909 10.0338 11.5482 10.8248 10.7342 11.3566L13.218 13.2452C14.6651 11.9362 15.5 10.0134 15.5 7.72935C15.5 7.19754 15.4513 6.68613 15.3608 6.19526L8.15302 6.19518Z" fill="#4285F4"/>
<path d="M3.86399 8.98635L3.3038 9.40659L1.32091 10.9202C2.58019 13.3679 5.1612 15.0588 8.15286 15.0588C10.2192 15.0588 11.9517 14.3906 13.218 13.2452L10.7342 11.3566C10.0524 11.8066 9.18252 12.0793 8.15286 12.0793C6.16305 12.0793 4.47245 10.7634 3.86712 8.99068L3.86399 8.98635Z" fill="#34A853"/>
<path d="M1.32091 4.19748C0.799137 5.20653 0.5 6.34518 0.5 7.55879C0.5 8.77241 0.79913 9.91115 1.32091 10.9202C1.32091 10.927 3.86737 8.98375 3.86737 8.98375C3.71431 8.53375 3.62383 8.05651 3.62383 7.55872C3.62383 7.06092 3.71431 6.58368 3.86737 6.13368L1.32091 4.19748Z" fill="#FBBC05"/>
<path d="M8.15302 3.0452C9.28013 3.0452 10.282 3.42701 11.0821 4.16338L13.2736 2.01568C11.9448 0.802066 10.2194 0.0588379 8.15302 0.0588379C5.16136 0.0588379 2.5802 1.74292 1.32091 4.19748L3.86737 6.13368C4.47263 4.36094 6.16321 3.0452 8.15302 3.0452Z" fill="#EA4335"/>
</svg>
