<svg width="91" height="18" viewBox="0 0 91 18" fill="none" xmlns="http://www.w3.org/2000/svg">
<path d="M0.117676 9.36C0.117676 6.63268 2.16735 4.54118 4.96996 4.54118C6.54277 4.54118 7.81441 5.22719 8.60918 6.26457C8.7263 6.39843 8.68447 6.56575 8.57572 6.68287L7.11166 8.08837C6.97781 8.22222 6.73519 8.23895 6.60134 8.08837C6.12447 7.65333 5.67271 7.46091 5.12055 7.46091C3.86565 7.46091 3.17127 8.33098 3.17127 9.36C3.17127 10.389 3.87401 11.3678 5.17911 11.3678C5.68944 11.3678 6.14957 11.1754 6.61807 10.7237C6.75192 10.5898 6.99454 10.6065 7.1284 10.7404L8.59245 12.1459C8.70957 12.263 8.74303 12.4303 8.63428 12.5642C7.83951 13.6099 6.56787 14.2876 5.07035 14.2876C2.20918 14.2876 0.117676 12.1459 0.117676 9.36Z" fill="#191919"/>
<path d="M9.32865 9.41856C9.32865 6.69124 11.0939 4.54954 13.6539 4.54954C14.959 4.54954 15.8541 5.0264 16.4398 5.83791L16.4732 5.0766C16.4732 4.90928 16.6071 4.77542 16.7744 4.77542H19.1253C19.2926 4.77542 19.4264 4.90928 19.4264 5.0766V13.7605C19.4264 13.9278 19.2758 14.0617 19.1002 14.0617H16.766C16.5987 14.0617 16.4649 13.9278 16.4649 13.7605L16.4314 12.9825C15.8039 13.794 14.9172 14.2876 13.6455 14.2876C11.0855 14.2876 9.32029 12.1626 9.32029 9.41019L9.32865 9.41856ZM14.3734 11.4097C15.4944 11.4097 16.2724 10.6149 16.2724 9.40183C16.2724 8.18876 15.4944 7.42745 14.3734 7.42745C13.2523 7.42745 12.4408 8.22222 12.4408 9.41856C12.4408 10.6149 13.2774 11.4097 14.3734 11.4097Z" fill="#191919"/>
<path d="M21.0829 12.6813C20.9909 12.5642 21.0076 12.3216 21.1582 12.1124L21.9948 10.9328C22.1621 10.6651 22.3378 10.7237 22.4884 10.8157C23.3417 11.3846 23.9692 11.6523 24.5548 11.6523C24.9731 11.6523 25.2408 11.5352 25.2408 11.2005C25.2408 10.9328 25.0735 10.799 24.5046 10.5563L23.2915 10.0795C22.0617 9.60261 21.2837 8.74928 21.2837 7.47765C21.2837 5.60366 22.8983 4.54118 24.7138 4.54118C25.9854 4.54118 27.1566 5.0515 27.9932 6.03869C28.1104 6.17255 28.0685 6.32314 27.9765 6.41516L26.8973 7.70353C26.7802 7.83739 26.6296 7.82065 26.4622 7.70353C25.8599 7.25176 25.3663 7.00078 24.8894 7.00078C24.3791 7.00078 24.3038 7.28523 24.3038 7.47765C24.3038 7.72026 24.5715 7.92941 24.8894 8.04654L26.3702 8.63216C27.5247 9.08392 28.4366 9.93725 28.4199 11.3427C28.3781 13.292 26.7132 14.2792 24.7807 14.2792C23.2079 14.2792 21.9362 13.6518 21.0996 12.6646L21.0829 12.6813Z" fill="#191919"/>
<path d="M29.976 13.7605V0.809934C29.976 0.642614 30.1098 0.508758 30.2772 0.508758H32.8706C33.0379 0.508758 33.1718 0.642614 33.1718 0.809934V7.99634L35.6398 4.92601C35.7318 4.80889 35.8489 4.77542 35.9828 4.77542H38.8858C39.1535 4.77542 39.2288 4.92601 39.0531 5.1519L36.0162 8.68235L39.5467 13.7103C39.6805 13.9195 39.6053 14.0701 39.3794 14.0701H36.5935C36.4429 14.0701 36.3509 14.0282 36.2505 13.9027L34.1255 10.891L33.1802 12.012V13.7773C33.1802 13.9446 33.0463 14.0784 32.879 14.0784H30.2855C30.1182 14.0784 29.9843 13.9446 29.9843 13.7773L29.976 13.7605Z" fill="#191919"/>
<path d="M42.2238 4.07268C41.2785 4.07268 40.4419 3.26118 40.4419 2.24889C40.4419 1.2366 41.2617 0.450195 42.2824 0.450195C43.2528 0.450195 44.2735 1.13621 44.2735 2.80104C44.2735 5.36104 41.8808 6.48209 40.5004 6.36497V5.70405C41.9394 5.76261 42.9098 4.08941 42.2238 4.07268Z" fill="#191919"/>
<path d="M46.0889 5.0766C46.0889 4.90928 46.2228 4.77542 46.3901 4.77542H48.8915C49.0421 4.77542 49.1592 4.85072 49.176 5.09333L49.268 6.34823C49.5692 5.30248 50.1381 4.54954 51.2006 4.54954C51.6774 4.54954 51.92 4.6834 52.0539 4.80052C52.2045 4.91765 52.2463 5.04314 52.2463 5.21882V7.32706C52.2463 7.55294 52.1125 7.62823 51.8447 7.57804C51.6523 7.51948 51.4683 7.48601 51.142 7.48601C50.0209 7.48601 49.268 8.07163 49.268 9.51059V13.7773C49.268 13.9446 49.1341 14.0784 48.9668 14.0784H46.3901C46.2228 14.0784 46.0889 13.9446 46.0889 13.7773V5.0766Z" fill="#191919"/>
<path d="M56.6887 9.41856C56.6887 6.69124 58.4539 4.54954 61.0139 4.54954C62.319 4.54954 63.2141 5.0264 63.7998 5.83791L63.8332 5.0766C63.8332 4.90928 63.9671 4.77542 64.1344 4.77542H66.4853C66.6526 4.77542 66.7864 4.90928 66.7864 5.0766V13.7605C66.7864 13.9278 66.6358 14.0617 66.4602 14.0617H64.126C63.9587 14.0617 63.8249 13.9278 63.8249 13.7605L63.7914 12.9825C63.1639 13.794 62.2771 14.2876 61.0055 14.2876C58.4455 14.2876 56.6803 12.1626 56.6803 9.41019L56.6887 9.41856ZM61.7334 11.4097C62.8544 11.4097 63.6324 10.6149 63.6324 9.40183C63.6324 8.18876 62.8544 7.42745 61.7334 7.42745C60.6123 7.42745 59.8008 8.22222 59.8008 9.41856C59.8008 10.6149 60.6374 11.4097 61.7334 11.4097Z" fill="#191919"/>
<path d="M68.7608 17.3663V5.0766C68.7608 4.90928 68.8947 4.77542 69.062 4.77542H71.4128C71.5802 4.77542 71.714 4.90928 71.714 5.0766L71.7559 5.83791C72.3415 5.0264 73.2366 4.54954 74.5417 4.54954C77.1017 4.54954 78.867 6.69124 78.867 9.41856C78.867 12.1459 77.1017 14.2959 74.5417 14.2959C73.4207 14.2959 72.5924 13.9195 71.965 13.2502V17.3663C71.965 17.5336 71.8311 17.6674 71.6638 17.6674H69.0704C68.903 17.6674 68.7692 17.5336 68.7692 17.3663H68.7608ZM73.8223 11.4097C74.9182 11.4097 75.7548 10.6316 75.7548 9.41856C75.7548 8.20549 74.9182 7.42745 73.8223 7.42745C72.7263 7.42745 71.9232 8.20549 71.9232 9.40183C71.9232 10.5982 72.7012 11.4097 73.8223 11.4097Z" fill="#191919"/>
<path d="M80.3645 17.3663V5.0766C80.3645 4.90928 80.4983 4.77542 80.6656 4.77542H83.0165C83.1838 4.77542 83.3177 4.90928 83.3177 5.0766L83.3595 5.83791C83.9451 5.0264 84.8403 4.54954 86.1454 4.54954C88.7054 4.54954 90.4706 6.69124 90.4706 9.41856C90.4706 12.1459 88.7054 14.2959 86.1454 14.2959C85.0243 14.2959 84.1961 13.9195 83.5686 13.2502V17.3663C83.5686 17.5336 83.4348 17.6674 83.2675 17.6674H80.674C80.5067 17.6674 80.3728 17.5336 80.3728 17.3663H80.3645ZM85.4259 11.4097C86.5219 11.4097 87.3585 10.6316 87.3585 9.41856C87.3585 8.20549 86.5219 7.42745 85.4259 7.42745C84.33 7.42745 83.5268 8.20549 83.5268 9.40183C83.5268 10.5982 84.3049 11.4097 85.4259 11.4097Z" fill="#191919"/>
</svg>
