<svg width="56" height="56" viewBox="0 0 56 56" fill="none" xmlns="http://www.w3.org/2000/svg">
<path d="M15.5478 40.9111V18.8533H11.0833C10.7333 18.8533 10.5 18.62 10.5 18.27V14.8906C10.5 14.5406 10.7333 14.3072 11.0833 14.3072H20.3272C20.6772 14.3072 20.9106 14.5406 20.9106 14.8906V40.9111C20.9106 41.2611 20.6772 41.4944 20.3272 41.4944H16.1311C15.7811 41.4944 15.5478 41.2611 15.5478 40.9111Z" fill="#808000"/>
<path d="M24.9861 28.0194C24.9861 18.27 30.1894 14 35.8983 14C41.6072 14 46.8106 18.27 46.8106 28.0194C46.8106 37.7689 41.6072 42 35.8983 42C30.1894 42 24.9861 37.7689 24.9861 28.0194ZM35.8983 37.03C39.8611 37.03 41.6072 33.2617 41.6072 28.0194C41.6072 22.7772 39.8611 18.97 35.8983 18.97C31.9356 18.97 30.1894 22.7772 30.1894 28.0194C30.1894 33.2617 31.8967 37.03 35.8983 37.03Z" fill="#808000"/>
<path d="M7 0H0V56H7V0Z" fill="#808000"/>
<path d="M42 0H14V10.5H42V0Z" fill="#808000"/>
<path d="M56 0H49V56H56V0Z" fill="#808000"/>
<path d="M42 45.5H14V56H42V45.5Z" fill="#808000"/>
</svg>
