<svg width="31" height="31" viewBox="0 0 31 31" fill="none" xmlns="http://www.w3.org/2000/svg">
<path d="M25.5498 25.8593C22.8392 28.4946 19.1414 30.1176 15.0588 30.1176C10.4659 30.1176 6.3498 28.0596 3.58902 24.8136C5.54667 26.7712 8.84288 23.3077 15.0588 23.3077C16.4141 23.3077 17.6858 23.4332 18.8319 23.6173C18.8319 23.6173 18.8319 23.6173 18.8403 23.6173C22.9396 24.3033 25.5414 25.8593 25.5414 25.8593H25.5498Z" fill="#DBF227"/>
<path d="M28.4026 22.0361C29.4233 19.9446 15.0588 19.6601 15.0588 19.6601C15.0588 19.6601 1.32183 19.6099 0 15.0588C0 12.5407 0.619085 10.1731 1.70667 8.08994C0.736209 10.1731 15.0588 10.4575 15.0588 10.4575C15.0588 10.4575 28.7958 10.5077 30.1176 15.0588C30.1176 17.577 29.4986 19.9529 28.4026 22.0361Z" fill="#DBF227"/>
<path d="M26.5286 5.30405C24.571 3.35477 21.2748 6.80994 15.0588 6.80994C13.7035 6.80994 12.4403 6.68444 11.2941 6.50039C11.2941 6.50039 11.2941 6.50039 11.2774 6.50039C7.17804 5.81438 4.56784 4.2583 4.56784 4.2583C7.27843 1.62301 10.9846 0 15.0588 0C19.6518 0 23.7678 2.05804 26.5286 5.30405Z" fill="#DBF227"/>
<path d="M26.2024 5.5885C25.8761 5.27896 25.5163 5.13673 25.0227 5.13673C24.2865 5.13673 23.3244 5.46301 22.2201 5.83948C20.3712 6.46693 18.0706 7.24497 15.0588 7.24497C13.7872 7.24497 12.4988 7.13621 11.2272 6.92706C11.0348 6.90196 9.55399 6.73464 7.83895 6.73464C4.71006 6.73464 2.67712 7.27007 2.1166 8.24889V8.26562C2.1166 8.26562 2.1166 8.26562 2.1166 8.27399V8.29072C2.13333 8.33255 2.35085 8.68392 4.10771 9.06876C5.22039 9.31137 6.74301 9.52052 8.63372 9.67948C11.8044 9.95556 14.9584 10.0309 15.0923 10.0309C23.7762 10.0309 25.9179 8.37438 26.4199 7.38719C26.8465 6.55059 26.3362 5.73072 26.2358 5.5885H26.2024Z" fill="#191919"/>
<path d="M28.0178 21.8604V21.852C28.0178 21.852 28.0178 21.8437 28.0178 21.8353C28.001 21.7935 27.7835 21.4421 26.0267 21.0573C24.914 20.8146 23.3914 20.6055 21.5007 20.4465C18.3299 20.1705 15.1759 20.0952 15.0421 20.0952C6.34144 20.0952 4.2081 21.7516 3.70614 22.7472C3.27947 23.5922 3.7898 24.3869 3.89856 24.5375C4.22483 24.8471 4.58457 24.9893 5.07817 24.9893C5.81438 24.9893 6.77647 24.663 7.88078 24.2865C9.72967 23.6591 12.0303 22.881 15.0421 22.881C16.3137 22.881 17.6105 22.9898 18.8821 23.199C19.0745 23.224 20.5386 23.383 22.262 23.383C25.4076 23.383 27.4489 22.8392 27.9927 21.8604H28.0178Z" fill="#191919"/>
<path d="M18.9323 13.5529V16.5731C18.9323 17.0248 18.6897 17.4431 18.3048 17.669L15.6946 19.1749C15.3014 19.4008 14.8246 19.4008 14.4314 19.1749L11.8212 17.669C11.428 17.4431 11.1937 17.0248 11.1937 16.5731V13.5529C11.1937 13.1012 11.4363 12.6829 11.8212 12.457L14.4314 10.9511C14.8246 10.7252 15.3014 10.7252 15.6946 10.9511L18.3048 12.457C18.698 12.6829 18.9323 13.1012 18.9323 13.5529Z" fill="#191919"/>
<path d="M18.9323 1.50588C18.9323 1.95765 18.6897 2.37595 18.3048 2.60183L15.6946 4.10771C15.3014 4.33359 14.8246 4.33359 14.4314 4.10771L11.8212 2.60183C11.428 2.37595 11.1937 1.95765 11.1937 1.50588C11.1937 0.903529 11.6204 0.384837 12.206 0.267712C13.1346 0.0920261 14.0884 0 15.0672 0C16.046 0 16.9997 0.0920261 17.9284 0.267712C18.5224 0.384837 18.9407 0.903529 18.9407 1.50588H18.9323Z" fill="#191919"/>
<path d="M18.9323 28.6118C18.9323 29.2141 18.5056 29.7328 17.92 29.8499C16.9914 30.0256 16.0376 30.1176 15.0588 30.1176C14.08 30.1176 13.1263 30.0256 12.1976 29.8499C11.6037 29.7328 11.1854 29.2141 11.1854 28.6118C11.1854 28.16 11.428 27.7417 11.8128 27.5158L14.423 26.0099C14.8162 25.7841 15.2931 25.7841 15.6863 26.0099L18.2965 27.5158C18.6897 27.7417 18.9239 28.16 18.9239 28.6118H18.9323Z" fill="#191919"/>
<path d="M28.4026 22.0361C28.4361 21.9608 28.4528 21.8939 28.4528 21.8269C28.4528 21.8102 28.4528 21.8018 28.4528 21.7851C28.4528 21.7767 28.4528 21.76 28.4528 21.7516C28.4528 21.7516 28.4528 21.7433 28.4528 21.7349C28.4528 21.7265 28.4528 21.7182 28.4528 21.7098C28.4528 21.7098 28.4528 21.7014 28.4528 21.6931C28.4528 21.6847 28.4444 21.668 28.4361 21.6596C28.4361 21.6429 28.4193 21.6345 28.411 21.6178C28.411 21.601 28.3942 21.5927 28.3859 21.5759C28.3859 21.5676 28.3692 21.5508 28.3608 21.5425C28.3608 21.5341 28.344 21.5257 28.3357 21.509C28.3357 21.509 28.3273 21.4923 28.319 21.4839C28.3106 21.4756 28.2939 21.4588 28.2855 21.4505C28.2186 21.3835 28.1265 21.3166 28.0178 21.258C28.001 21.2497 27.9843 21.2413 27.9676 21.2246C27.909 21.1911 27.8421 21.1576 27.7668 21.1242C27.7501 21.1242 27.7333 21.1075 27.725 21.1075C27.7082 21.1075 27.6999 21.0907 27.6831 21.0907C27.658 21.0824 27.6329 21.0656 27.5995 21.0573C27.5409 21.0322 27.4907 21.0154 27.4238 20.9903C27.4071 20.9903 27.3903 20.9736 27.3652 20.9736C27.2481 20.9318 27.131 20.8983 27.0055 20.8565C26.9804 20.8481 26.9469 20.8397 26.9135 20.8314C26.8465 20.8146 26.7796 20.7979 26.7127 20.7812C26.6374 20.7644 26.5705 20.7393 26.4952 20.7226C26.4115 20.6975 26.3195 20.6808 26.2274 20.6641C26.1689 20.6473 26.102 20.639 26.035 20.6222C25.8593 20.5888 25.6837 20.5469 25.4996 20.5218C25.4578 20.5218 25.4159 20.5051 25.3741 20.4967C25.165 20.4633 24.9558 20.4214 24.7299 20.388C24.7048 20.388 24.6797 20.388 24.663 20.3796C24.6463 20.3796 24.6295 20.3796 24.6212 20.3796C24.5626 20.3712 24.4957 20.3629 24.4371 20.3545C24.3451 20.3378 24.2614 20.3294 24.1694 20.3127C24.1276 20.3127 24.0857 20.3043 24.0439 20.2959C24.0021 20.2959 23.9603 20.2876 23.9184 20.2792C23.7929 20.2625 23.6591 20.2458 23.5336 20.229C23.4834 20.229 23.4248 20.2123 23.3746 20.2123C23.3244 20.2123 23.2742 20.1621 23.2742 20.1035C23.2742 20.1035 23.291 20.0282 23.3328 20.0115L26.1605 18.3801C26.7712 18.0288 27.5325 18.0288 28.1433 18.3801C29.005 18.8737 29.3647 19.9362 28.9882 20.8565C28.8209 21.2664 28.6285 21.668 28.4277 22.0528L28.4026 22.0361Z" fill="#191919"/>
<path d="M1.71503 8.0732C1.68157 8.1485 1.66484 8.21543 1.66484 8.28235C1.66484 8.29909 1.66484 8.30745 1.66484 8.32419C1.66484 8.33255 1.66484 8.34928 1.66484 8.35765C1.66484 8.35765 1.66484 8.36602 1.66484 8.37438C1.66484 8.38275 1.66484 8.39111 1.66484 8.39948C1.66484 8.39948 1.66484 8.40785 1.66484 8.41621C1.66484 8.42458 1.6732 8.44131 1.68157 8.44968C1.68157 8.46641 1.6983 8.47477 1.70667 8.4915C1.70667 8.50824 1.7234 8.5166 1.73176 8.53334C1.73176 8.5417 1.7485 8.55843 1.75686 8.5668C1.75686 8.57517 1.77359 8.58353 1.78196 8.60026C1.78196 8.60026 1.79033 8.617 1.79869 8.62536C1.80706 8.63373 1.82379 8.65046 1.83216 8.65883C1.89908 8.72575 1.99111 8.79268 2.09987 8.85124C2.1166 8.85961 2.13333 8.86798 2.15006 8.88471C2.20863 8.91817 2.27555 8.95164 2.35085 8.9851C2.36758 8.9851 2.38431 9.00183 2.39268 9.00183C2.40941 9.00183 2.41778 9.01856 2.43451 9.01856C2.45961 9.02693 2.48471 9.04366 2.51817 9.05203C2.57673 9.07713 2.62693 9.09386 2.69386 9.11896C2.71059 9.11896 2.72732 9.13569 2.75242 9.13569C2.86954 9.17752 2.98667 9.21098 3.11216 9.25281C3.13725 9.26118 3.17072 9.26955 3.20418 9.27791C3.27111 9.29464 3.33804 9.31137 3.40497 9.32811C3.48026 9.34484 3.54719 9.36994 3.62248 9.38667C3.70614 9.41177 3.79817 9.4285 3.8902 9.44523C3.94876 9.46196 4.01569 9.47033 4.08261 9.48706C4.2583 9.52053 4.43399 9.56235 4.61804 9.58745C4.65987 9.58745 4.7017 9.60418 4.74353 9.61255C4.95268 9.64601 5.16183 9.68785 5.38771 9.72131C5.41281 9.72131 5.43791 9.72131 5.45464 9.72968C5.47137 9.72968 5.4881 9.72968 5.49647 9.72968C5.55503 9.73804 5.62196 9.74641 5.68052 9.75477C5.77255 9.77151 5.85621 9.77987 5.94823 9.7966C5.99006 9.7966 6.03189 9.80497 6.07372 9.81334C6.11555 9.81334 6.15738 9.8217 6.19921 9.83007C6.3247 9.8468 6.45856 9.86353 6.58405 9.88026C6.63425 9.88026 6.69281 9.897 6.74301 9.897C6.7932 9.897 6.8434 9.94719 6.8434 10.0058C6.8434 10.0058 6.82667 10.081 6.78484 10.0978L3.95712 11.7292C3.3464 12.0805 2.5851 12.0805 1.97438 11.7292C1.11268 11.2356 0.75294 10.1731 1.12941 9.25281C1.29673 8.84288 1.48915 8.44131 1.68993 8.05647L1.71503 8.0732Z" fill="#191919"/>
<path d="M25.0227 5.12837C25.5163 5.12837 25.8844 5.27059 26.2024 5.58013C26.3027 5.73072 26.8214 6.54222 26.3864 7.37883C25.8844 8.36602 23.7427 10.0225 15.0588 10.0225C14.925 10.0225 11.771 9.94719 8.60026 9.67111C6.71791 9.50379 5.1953 9.29464 4.07425 9.0604C2.31739 8.67556 2.09987 8.32419 2.08314 8.28236C2.08314 8.28236 2.08314 8.27399 2.08314 8.26562C2.08314 8.26562 2.08314 8.26562 2.08314 8.25726V8.24053H2.09151C2.65203 7.27007 4.68497 6.72628 7.81386 6.72628C9.52889 6.72628 11.0097 6.8936 11.2021 6.91033C12.4737 7.11948 13.7621 7.22824 15.0337 7.22824C18.0371 7.22824 20.3461 6.4502 22.195 5.82275C23.3077 5.44628 24.2614 5.12 24.9976 5.12M24.9976 4.69334C22.948 4.69334 19.8776 6.79321 15.0337 6.79321C13.6784 6.79321 12.4152 6.66772 11.269 6.48366C11.269 6.48366 11.269 6.48366 11.2523 6.48366C11.0682 6.45857 9.57909 6.29124 7.81386 6.29124C5.41281 6.29124 2.50981 6.60079 1.71503 8.03138C1.71503 8.04811 1.6983 8.05647 1.6983 8.0732C0.727845 10.1563 15.0505 10.4408 15.0505 10.4408C30.0256 10.4408 26.7545 5.60523 26.537 5.30406C26.102 4.86902 25.6084 4.7017 25.0311 4.7017L24.9976 4.69334Z" fill="#191919"/>
<path d="M15.0588 19.6601C-0.0501947 19.6601 3.41333 24.5793 3.58065 24.8052C4.01568 25.2403 4.50928 25.4076 5.08653 25.4076C7.13621 25.4076 10.2065 23.3077 15.0505 23.3077C16.4057 23.3077 17.6774 23.4332 18.8235 23.6173C18.8235 23.6173 18.8235 23.6173 18.8319 23.6173C19.0327 23.6423 20.5135 23.8097 22.2703 23.8097C24.6714 23.8097 27.5827 23.4918 28.3775 22.0612C28.3775 22.0528 28.3859 22.0444 28.3942 22.0277C29.4149 19.9362 15.0505 19.6518 15.0505 19.6518L15.0588 19.6601ZM28.0178 21.8437L28.0178 21.852C27.474 22.8392 25.4327 23.383 22.2871 23.383C20.5637 23.383 19.0996 23.2157 18.9072 23.199C17.6272 22.9898 16.3388 22.881 15.0672 22.881C12.0638 22.881 9.76313 23.6591 7.90588 24.2865C6.7932 24.663 5.83947 24.9893 5.10327 24.9893C4.60967 24.9893 4.24157 24.8471 3.92366 24.5375C3.8149 24.3786 3.30457 23.5838 3.73124 22.7472C4.2332 21.76 6.36653 20.0952 15.0672 20.0952C15.201 20.0952 18.355 20.1705 21.5257 20.4465C23.4081 20.6139 24.9307 20.823 26.0518 21.0573C27.8086 21.4337 28.0261 21.7935 28.0429 21.8353C28.0429 21.8353 28.0429 21.8437 28.0429 21.852L28.0178 21.8437Z" fill="#191919"/>
</svg>
