<svg width="56" height="56" viewBox="0 0 56 56" fill="none" xmlns="http://www.w3.org/2000/svg">
<path d="M51.7378 25.0833C50.2872 13.2378 40.0283 4.08333 28 4.08333C15.9717 4.08333 5.71278 13.2378 4.26222 25.0833H0V30.9167H4.26222C5.71278 42.7622 15.9717 51.9167 28 51.9167C40.0283 51.9167 50.2872 42.7622 51.7378 30.9167H56V25.0833H51.7378ZM28 46.0833C19.0517 46.0833 11.5578 39.6356 10.15 30.9167H24.6089C25.4528 31.9006 26.6856 32.4722 28 32.4722C29.3144 32.4722 30.5472 31.9006 31.3911 30.9167H45.85C44.4422 39.6356 36.9483 46.0833 28 46.0833ZM31.3911 25.0833C30.5472 24.0994 29.3144 23.5278 28 23.5278C26.6856 23.5278 25.4528 24.0994 24.6089 25.0833H10.15C11.5578 16.3644 19.0517 9.91667 28 9.91667C36.9483 9.91667 44.4422 16.3644 45.85 25.0833H31.3911Z" fill="#006622"/>
</svg>
